[img]http://img16.imageshack.us/img16/7341/blankoy.png[/img]




[img]http://img251.imageshack.us/img251/4286/mxmg.jpg[/img]

[quote]
Format                           : AVI
Format/Info                      : Audio Video Interleave
File size                        : 1.48 GiB
Duration                         : 1h 21mn
Overall bit rate                 : 2 591 Kbps
Writing application              : VirtualDubMod 1.5.10.3 | www.virtualdub-fr.org || (build 2550/release)
Writing library                  : VirtualDubMod build 2550/release

Video
ID                               : 0
Format                           : MPEG-4 Visual
Format profile                   : Advanced Simple@L5
Format settings, BVOP            : 1
Format settings, QPel            : No
Format settings, GMC             : No warppoints
Format settings, Matrix          : Default (H.263)
Codec ID                         : XVID
Codec ID/Hint                    : XviD
Duration                         : 1h 21mn
Bit rate                         : 2 198 Kbps
Width                            : 1 280 pixels
Height                           : 720 pixels
Display aspect ratio             : 16:9
Frame rate                       : 23.976 fps
Color space                      : YUV
Chroma subsampling               : 4:2:0
Bit depth                        : 8 bits
Scan type                        : Progressive
Compression mode                 : Lossy
Bits/(Pixel*Frame)               : 0.099
Stream size                      : 1.26 GiB (85%)
Writing library                  : XviD 63

Audio
ID                               : 1
Format                           : AC-3
Format/Info                      : Audio Coding 3
Mode extension                   : CM (complete main)
Codec ID                         : 2000
Duration                         : 1h 21mn
Bit rate mode                    : Constant
Bit rate                         : 384 Kbps
Channel(s)                       : 6 channels
Channel positions                : Front: L C R, Side: L R, LFE
Sampling rate                    : 48.0 KHz
Bit depth                        : 16 bits
Compression mode                 : Lossy
Stream size                      : 225 MiB (15%)
Alignment                        : Split accross interleaves
Interleave, duration             : 42 ms (1.00 video frame)
Interleave, preload duration     : 500 ms


[/quote]


Screens :
[img]http://img94.imageshack.us/img94/4438/screenshot6qgd.png[/img]

[img]http://img148.imageshack.us/img148/7533/screenshot1ke.png[/img]

[img]http://img232.imageshack.us/img232/1614/screenshot2yo.png[/img]

[img]http://img822.imageshack.us/img822/641/screenshot3kv.png[/img]

[img]http://img35.imageshack.us/img35/4549/screenshot5ky.png[/img]

[img]http://img694.imageshack.us/img694/4536/screenshot4vc.png[/img]




[quote]
# Latest codecs used to deliver Top Quality Releases
# Seeded at high speeds to grant super Download speeds
# All DivX/XviD Players compatible and also PS3, Popcorn Hour, WD & XBOX 360*
[/quote]

[code]
Seedboxes provided by   http://www.chociz.com/
A seedbox is a private dedicated server used for the uploading and downloading of digital files.
Speed - You can sit back, relax and watch in amazement at how fast the torrents finish. 
Secure and Safe - With a seedbox, you don’t even need to use a BitTorrent client on your home computer!
Use Private Trackers -  You can register @ Private Trackers and seed like Hell!

Get a Cheap Seedbox choosing for your taste - [url]http://www.chociz.com/whmcs/cart.php[/url]
[/code]

